<svg xmlns="http://www.w3.org/2000/svg" xmlns:xlink="http://www.w3.org/1999/xlink" id="Group_552" data-name="Group 552" width="100" height="100" viewBox="0 0 234.339 204.753">
  <defs>
    <clipPath id="clip-path">
      <path id="Path_1058" data-name="Path 1058" d="M100.95,28.65V121.79h0L92.6,110.675,84.3,121.79h-.041l-8.347-11.116L67.6,121.79h-.041l-8.306-11.116L50.909,121.79h0l-8.347-11.116L34.214,121.79h0l-8.347-11.116L17.561,121.79H17.52V12.41H83.677Z" transform="translate(-17.52 -12.41)"/>
    </clipPath>
  </defs>
  <g id="Group_541" data-name="Group 541" transform="translate(72.397 51.281)">
    <g id="Group_540" data-name="Group 540" opacity="0.429" clip-path="url(#clip-path)">
      <rect id="Rectangle_23" data-name="Rectangle 23" width="100" height="100" transform="translate(10.248 -2.81)" fill="#f9c5c0"/>
    </g>
  </g>
  <path id="Path_1059" data-name="Path 1059" d="M73.43,41.843a27.061,27.061,0,0,0-46.488,7.686A14.151,14.151,0,0,0,0,55.644a1.553,1.553,0,0,0,1.529,1.529,1.553,1.553,0,0,0,1.529-1.529,11.157,11.157,0,1,1,22.314,0,1.32,1.32,0,0,0,.124.579c-.083.826-.124,1.694-.124,2.521a1.529,1.529,0,0,0,3.058,0,23.957,23.957,0,0,1,42.645-15,1.514,1.514,0,1,0,2.355-1.9Z" transform="translate(0 99.48)" fill="#bb3d1f"/>
  <path id="Path_1060" data-name="Path 1060" d="M100.046,41.249A16.692,16.692,0,0,0,86,48.977,30.843,30.843,0,0,0,57.112,23.109,30.492,30.492,0,0,0,38.186,28.44,1.519,1.519,0,0,0,39.88,30.96a27.517,27.517,0,0,1,17.066-4.793A27.855,27.855,0,0,1,83.31,55.3a1.358,1.358,0,0,0,.165.7,14.844,14.844,0,0,0-.124,1.942,1.529,1.529,0,1,0,3.058,0,13.678,13.678,0,1,1,27.355,0,1.529,1.529,0,1,0,3.058,0A16.852,16.852,0,0,0,100.046,41.249Z" transform="translate(117.517 72.263)" fill="#bb3d1f"/>
  <g id="Group_542" data-name="Group 542" transform="translate(70.827 49.752)">
    <path id="Path_1061" data-name="Path 1061" d="M102.14,124.478a1.473,1.473,0,0,1-1.24-.62l-7.107-9.5-7.107,9.5a1.6,1.6,0,0,1-2.479,0l-7.107-9.5-7.107,9.5a1.6,1.6,0,0,1-2.479,0l-7.107-9.5-7.107,9.5a1.6,1.6,0,0,1-2.479,0l-7.107-9.5-7.107,9.5a1.6,1.6,0,0,1-2.479,0l-7.107-9.5-7.107,9.5a1.586,1.586,0,0,1-1.24.62,1.553,1.553,0,0,1-1.529-1.529V13.569a1.553,1.553,0,0,1,1.529-1.529H84.826a1.63,1.63,0,0,1,1.033.413l17.231,16.281a1.638,1.638,0,0,1,.5,1.116v93.141A1.4,1.4,0,0,1,102.14,124.478ZM77.1,110.3a1.473,1.473,0,0,1,1.24.62l7.107,9.5,7.107-9.5a1.586,1.586,0,0,1,1.24-.62h0a1.473,1.473,0,0,1,1.24.62l5.579,7.479V30.47L84.289,15.057H20.239V118.363l5.62-7.479a1.586,1.586,0,0,1,1.24-.62h0a1.473,1.473,0,0,1,1.24.62l7.107,9.5,7.107-9.5a1.556,1.556,0,0,1,2.438,0l7.107,9.5,7.107-9.5a1.586,1.586,0,0,1,1.24-.62h0a1.473,1.473,0,0,1,1.24.62l7.107,9.5,7.107-9.5a1.667,1.667,0,0,1,1.2-.578Z" transform="translate(-17.14 -12.04)" fill="#bb3d1f"/>
  </g>
  <path id="Path_1062" data-name="Path 1062" d="M34.532,29.641,33.54,12.41,50.771,28.65Z" transform="translate(105.055 38.871)" fill="#bb3d1f"/>
  <ellipse id="Ellipse_12" data-name="Ellipse 12" cx="3.182" cy="2.231" rx="3.182" ry="2.231" transform="translate(86.57 87.438)" fill="#bb3d1f"/>
  <ellipse id="Ellipse_13" data-name="Ellipse 13" cx="3.182" cy="2.231" rx="3.182" ry="2.231" transform="translate(135.951 87.438)" fill="#bb3d1f"/>
  <circle id="Ellipse_14" data-name="Ellipse 14" cx="2.19" cy="2.19" r="2.19" transform="translate(42.769 86.653)" fill="#e57f6a"/>
  <circle id="Ellipse_15" data-name="Ellipse 15" cx="3.802" cy="3.802" r="3.802" transform="translate(153.637 30.496)" fill="#e57f6a"/>
  <circle id="Ellipse_16" data-name="Ellipse 16" cx="2.107" cy="2.107" r="2.107" transform="translate(186.24 57.149)" fill="#bb3d1f"/>
  <g id="Group_543" data-name="Group 543" transform="translate(42.025 69.711)">
    <path id="Path_1063" data-name="Path 1063" d="M11.309,16.87a.282.282,0,0,0-.289.289v1.653a.289.289,0,1,0,.579,0V17.159A.348.348,0,0,0,11.309,16.87Z" transform="translate(-7.508 -16.87)" fill="#bb3d1f"/>
    <path id="Path_1064" data-name="Path 1064" d="M11.1,17.105a.269.269,0,1,0-.455.289l.826,1.446a.25.25,0,0,0,.248.124.152.152,0,0,0,.124-.041.269.269,0,0,0,.083-.372Z" transform="translate(-8.824 -16.527)" fill="#bb3d1f"/>
    <path id="Path_1065" data-name="Path 1065" d="M10.415,17.787l1.446.826a.152.152,0,0,0,.124.041.3.3,0,0,0,.248-.124.269.269,0,0,0-.083-.372L10.7,17.333a.269.269,0,0,0-.372.083C10.25,17.581,10.291,17.746,10.415,17.787Z" transform="translate(-9.795 -15.556)" fill="#bb3d1f"/>
    <path id="Path_1066" data-name="Path 1066" d="M12.4,18a.282.282,0,0,0-.289-.289H10.459a.289.289,0,0,0,0,.579h1.653A.282.282,0,0,0,12.4,18Z" transform="translate(-10.17 -14.239)" fill="#bb3d1f"/>
    <path id="Path_1067" data-name="Path 1067" d="M12.233,18.065a.269.269,0,0,0-.372-.083l-1.446.826a.269.269,0,0,0-.083.372.25.25,0,0,0,.248.124.152.152,0,0,0,.124-.041l1.446-.826A.287.287,0,0,0,12.233,18.065Z" transform="translate(-9.795 -13.52)" fill="#bb3d1f"/>
    <path id="Path_1068" data-name="Path 1068" d="M11.841,18.143a.269.269,0,0,0-.372.083l-.826,1.446a.269.269,0,0,0,.083.372.152.152,0,0,0,.124.041.3.3,0,0,0,.248-.124l.826-1.446A.269.269,0,0,0,11.841,18.143Z" transform="translate(-8.824 -13.019)" fill="#bb3d1f"/>
    <path id="Path_1069" data-name="Path 1069" d="M11.309,18.17a.282.282,0,0,0-.289.289v1.653a.289.289,0,1,0,.579,0V18.459C11.557,18.253,11.433,18.17,11.309,18.17Z" transform="translate(-7.508 -12.798)" fill="#bb3d1f"/>
    <path id="Path_1070" data-name="Path 1070" d="M11.747,18.235a.269.269,0,0,0-.455.289l.826,1.446a.25.25,0,0,0,.248.124.152.152,0,0,0,.124-.041.269.269,0,0,0,.083-.372Z" transform="translate(-6.788 -12.987)" fill="#bb3d1f"/>
    <path id="Path_1071" data-name="Path 1071" d="M13.271,18.809l-1.446-.826a.269.269,0,1,0-.289.455l1.446.826a.152.152,0,0,0,.124.041.3.3,0,0,0,.248-.124A.269.269,0,0,0,13.271,18.809Z" transform="translate(-6.287 -13.52)" fill="#bb3d1f"/>
    <path id="Path_1072" data-name="Path 1072" d="M13.412,17.72H11.759a.289.289,0,1,0,0,.579h1.653a.289.289,0,1,0,0-.579Z" transform="translate(-6.098 -14.208)" fill="#bb3d1f"/>
    <path id="Path_1073" data-name="Path 1073" d="M11.453,18.531a.25.25,0,0,0,.248.124.152.152,0,0,0,.124-.041l1.446-.826a.269.269,0,1,0-.289-.455l-1.446.826A.269.269,0,0,0,11.453,18.531Z" transform="translate(-6.287 -15.556)" fill="#bb3d1f"/>
    <path id="Path_1074" data-name="Path 1074" d="M11.375,18.923a.152.152,0,0,0,.124.041.3.3,0,0,0,.248-.124l.826-1.446a.269.269,0,0,0-.455-.289l-.826,1.446A.269.269,0,0,0,11.375,18.923Z" transform="translate(-6.788 -16.527)" fill="#bb3d1f"/>
  </g>
  <g id="Group_544" data-name="Group 544" transform="translate(80.207 35.868)">
    <path id="Path_1075" data-name="Path 1075" d="M20.549,8.68a.282.282,0,0,0-.289.289v1.653a.289.289,0,1,0,.579,0V8.969A.282.282,0,0,0,20.549,8.68Z" transform="translate(-16.748 -8.68)" fill="#bb3d1f"/>
    <path id="Path_1076" data-name="Path 1076" d="M20.337,8.925a.269.269,0,1,0-.455.289l.826,1.446a.25.25,0,0,0,.248.124.152.152,0,0,0,.124-.041.269.269,0,0,0,.083-.372Z" transform="translate(-18.064 -8.305)" fill="#bb3d1f"/>
    <path id="Path_1077" data-name="Path 1077" d="M19.655,9.607l1.446.826a.152.152,0,0,0,.124.041.3.3,0,0,0,.248-.124.269.269,0,0,0-.083-.372l-1.446-.826a.269.269,0,1,0-.289.455Z" transform="translate(-19.035 -7.334)" fill="#bb3d1f"/>
    <path id="Path_1078" data-name="Path 1078" d="M21.641,9.819a.282.282,0,0,0-.289-.289H19.7a.289.289,0,1,0,0,.579h1.653A.282.282,0,0,0,21.641,9.819Z" transform="translate(-19.41 -6.018)" fill="#bb3d1f"/>
    <path id="Path_1079" data-name="Path 1079" d="M21.473,9.885A.269.269,0,0,0,21.1,9.8l-1.446.826a.269.269,0,0,0-.083.372.25.25,0,0,0,.248.124.152.152,0,0,0,.124-.041l1.446-.826A.269.269,0,0,0,21.473,9.885Z" transform="translate(-19.035 -5.298)" fill="#bb3d1f"/>
    <path id="Path_1080" data-name="Path 1080" d="M21.081,9.963a.269.269,0,0,0-.372.083l-.826,1.446a.269.269,0,0,0,.083.372.152.152,0,0,0,.124.041.3.3,0,0,0,.248-.124l.826-1.446A.269.269,0,0,0,21.081,9.963Z" transform="translate(-18.064 -4.797)" fill="#bb3d1f"/>
    <path id="Path_1081" data-name="Path 1081" d="M20.549,9.98a.282.282,0,0,0-.289.289v1.653a.289.289,0,1,0,.579,0V10.269A.282.282,0,0,0,20.549,9.98Z" transform="translate(-16.748 -4.608)" fill="#bb3d1f"/>
    <path id="Path_1082" data-name="Path 1082" d="M20.987,10.055a.269.269,0,0,0-.455.289l.826,1.446a.25.25,0,0,0,.248.124.152.152,0,0,0,.124-.041.269.269,0,0,0,.083-.372Z" transform="translate(-16.028 -4.766)" fill="#bb3d1f"/>
    <path id="Path_1083" data-name="Path 1083" d="M22.511,10.629,21.064,9.8a.269.269,0,1,0-.289.455l1.446.826a.152.152,0,0,0,.124.041A.3.3,0,0,0,22.593,11C22.717,10.877,22.635,10.712,22.511,10.629Z" transform="translate(-15.527 -5.298)" fill="#bb3d1f"/>
    <path id="Path_1084" data-name="Path 1084" d="M22.652,9.53H21a.289.289,0,1,0,0,.579h1.653a.289.289,0,1,0,0-.579Z" transform="translate(-15.338 -6.018)" fill="#bb3d1f"/>
    <path id="Path_1085" data-name="Path 1085" d="M20.672,10.351a.25.25,0,0,0,.248.124.152.152,0,0,0,.124-.041l1.446-.826a.269.269,0,1,0-.289-.455l-1.446.826A.4.4,0,0,0,20.672,10.351Z" transform="translate(-15.507 -7.334)" fill="#bb3d1f"/>
    <path id="Path_1086" data-name="Path 1086" d="M20.615,10.743a.152.152,0,0,0,.124.041.3.3,0,0,0,.248-.124l.826-1.446a.269.269,0,1,0-.455-.289l-.826,1.446A.269.269,0,0,0,20.615,10.743Z" transform="translate(-16.028 -8.305)" fill="#bb3d1f"/>
  </g>
  <g id="Group_545" data-name="Group 545" transform="translate(170.992 46.818)">
    <path id="Path_1087" data-name="Path 1087" d="M43.295,11.33a.459.459,0,0,0-.455.455v2.851a.455.455,0,1,0,.909,0V11.785A.459.459,0,0,0,43.295,11.33Z" transform="translate(-36.807 -11.33)" fill="#bb3d1f"/>
    <path id="Path_1088" data-name="Path 1088" d="M42.991,11.749a.482.482,0,1,0-.826.5l1.446,2.479a.454.454,0,0,0,.413.248.3.3,0,0,0,.248-.083.507.507,0,0,0,.165-.661Z" transform="translate(-39.106 -10.716)" fill="#bb3d1f"/>
    <path id="Path_1089" data-name="Path 1089" d="M41.789,12.951,44.269,14.4a.587.587,0,0,0,.248.083.454.454,0,0,0,.413-.248.529.529,0,0,0-.165-.661l-2.479-1.446a.529.529,0,0,0-.661.165A.506.506,0,0,0,41.789,12.951Z" transform="translate(-40.798 -9.025)" fill="#bb3d1f"/>
    <path id="Path_1090" data-name="Path 1090" d="M45.14,13.255a.459.459,0,0,0-.455-.455H41.835a.455.455,0,1,0,0,.909h2.851A.434.434,0,0,0,45.14,13.255Z" transform="translate(-41.38 -6.726)" fill="#bb3d1f"/>
    <path id="Path_1091" data-name="Path 1091" d="M44.93,13.409a.506.506,0,0,0-.661-.165L41.789,14.69a.507.507,0,0,0-.165.661.455.455,0,0,0,.413.248.3.3,0,0,0,.248-.083l2.479-1.446A.518.518,0,0,0,44.93,13.409Z" transform="translate(-40.798 -5.517)" fill="#bb3d1f"/>
    <path id="Path_1092" data-name="Path 1092" d="M44.262,13.524a.529.529,0,0,0-.661.165l-1.446,2.479a.529.529,0,0,0,.165.661.587.587,0,0,0,.248.083.454.454,0,0,0,.413-.248l1.446-2.479A.469.469,0,0,0,44.262,13.524Z" transform="translate(-39.138 -4.64)" fill="#bb3d1f"/>
    <path id="Path_1093" data-name="Path 1093" d="M43.295,13.57a.459.459,0,0,0-.455.455v2.851a.455.455,0,1,0,.909,0V14.025A.459.459,0,0,0,43.295,13.57Z" transform="translate(-36.807 -4.314)" fill="#bb3d1f"/>
    <path id="Path_1094" data-name="Path 1094" d="M44.111,13.689a.482.482,0,0,0-.826.5l1.446,2.479a.454.454,0,0,0,.413.248.3.3,0,0,0,.248-.083.507.507,0,0,0,.165-.661Z" transform="translate(-35.598 -4.64)" fill="#bb3d1f"/>
    <path id="Path_1095" data-name="Path 1095" d="M46.7,14.69l-2.479-1.446a.482.482,0,1,0-.5.826l2.479,1.446a.587.587,0,0,0,.248.083.454.454,0,0,0,.413-.248A.506.506,0,0,0,46.7,14.69Z" transform="translate(-34.721 -5.517)" fill="#bb3d1f"/>
    <path id="Path_1096" data-name="Path 1096" d="M46.926,12.8H44.075a.455.455,0,1,0,0,.909h2.851a.455.455,0,1,0,0-.909Z" transform="translate(-34.364 -6.726)" fill="#bb3d1f"/>
    <path id="Path_1097" data-name="Path 1097" d="M43.564,14.222a.454.454,0,0,0,.413.248.3.3,0,0,0,.248-.083L46.7,12.941a.482.482,0,1,0-.5-.826L43.729,13.56A.529.529,0,0,0,43.564,14.222Z" transform="translate(-34.721 -9.056)" fill="#bb3d1f"/>
    <path id="Path_1098" data-name="Path 1098" d="M43.449,14.89a.587.587,0,0,0,.248.083.454.454,0,0,0,.413-.248l1.446-2.479a.482.482,0,0,0-.826-.5l-1.446,2.479A.507.507,0,0,0,43.449,14.89Z" transform="translate(-35.598 -10.716)" fill="#bb3d1f"/>
  </g>
  <g id="Group_546" data-name="Group 546" transform="translate(138.843 29.711)">
    <path id="Path_1099" data-name="Path 1099" d="M34.628,7.19a.267.267,0,0,0-.248.248V8.967a.248.248,0,0,0,.5,0V7.438A.238.238,0,0,0,34.628,7.19Z" transform="translate(-31.157 -7.19)" fill="#bb3d1f"/>
    <path id="Path_1100" data-name="Path 1100" d="M34.486,7.415a.223.223,0,0,0-.331-.083c-.165.083-.207.207-.124.331l.744,1.322a.227.227,0,0,0,.207.124.152.152,0,0,0,.124-.041.223.223,0,0,0,.083-.331Z" transform="translate(-32.378 -6.878)" fill="#bb3d1f"/>
    <path id="Path_1101" data-name="Path 1101" d="M33.835,8.067l1.322.744a.152.152,0,0,0,.124.041.227.227,0,0,0,.207-.124.216.216,0,0,0-.083-.331l-1.322-.785a.216.216,0,0,0-.331.083A.269.269,0,0,0,33.835,8.067Z" transform="translate(-33.257 -6.001)" fill="#bb3d1f"/>
    <path id="Path_1102" data-name="Path 1102" d="M35.625,8.208a.267.267,0,0,0-.248-.248H33.848a.248.248,0,0,0,0,.5h1.529A.238.238,0,0,0,35.625,8.208Z" transform="translate(-33.6 -4.778)" fill="#bb3d1f"/>
    <path id="Path_1103" data-name="Path 1103" d="M35.488,8.285a.223.223,0,0,0-.331-.083l-1.322.744a.223.223,0,0,0-.083.331.227.227,0,0,0,.207.124.152.152,0,0,0,.124-.041l1.322-.744A.216.216,0,0,0,35.488,8.285Z" transform="translate(-33.257 -4.153)" fill="#bb3d1f"/>
    <path id="Path_1104" data-name="Path 1104" d="M35.148,8.353a.216.216,0,0,0-.331.083l-.785,1.322a.216.216,0,0,0,.083.331.152.152,0,0,0,.124.041.227.227,0,0,0,.207-.124l.744-1.322A.25.25,0,0,0,35.148,8.353Z" transform="translate(-32.38 -3.683)" fill="#bb3d1f"/>
    <path id="Path_1105" data-name="Path 1105" d="M34.628,8.37a.267.267,0,0,0-.248.248v1.529a.248.248,0,0,0,.5,0V8.618A.238.238,0,0,0,34.628,8.37Z" transform="translate(-31.157 -3.494)" fill="#bb3d1f"/>
    <path id="Path_1106" data-name="Path 1106" d="M35.036,8.435a.241.241,0,1,0-.413.248l.744,1.322a.227.227,0,0,0,.207.124.152.152,0,0,0,.124-.041.223.223,0,0,0,.083-.331Z" transform="translate(-30.532 -3.683)" fill="#bb3d1f"/>
    <path id="Path_1107" data-name="Path 1107" d="M36.425,8.946,35.1,8.2a.241.241,0,0,0-.248.413l1.322.744A.152.152,0,0,0,36.3,9.4a.246.246,0,0,0,.124-.455Z" transform="translate(-30.062 -4.153)" fill="#bb3d1f"/>
    <path id="Path_1108" data-name="Path 1108" d="M36.557,7.96H35.028a.248.248,0,1,0,0,.5h1.529a.248.248,0,1,0,0-.5Z" transform="translate(-29.904 -4.778)" fill="#bb3d1f"/>
    <path id="Path_1109" data-name="Path 1109" d="M34.773,8.7a.227.227,0,0,0,.207.124A.152.152,0,0,0,35.1,8.78l1.322-.744a.241.241,0,1,0-.248-.413l-1.322.744A.216.216,0,0,0,34.773,8.7Z" transform="translate(-30.062 -5.97)" fill="#bb3d1f"/>
    <path id="Path_1110" data-name="Path 1110" d="M34.705,9.068a.152.152,0,0,0,.124.041.227.227,0,0,0,.207-.124l.744-1.322a.241.241,0,0,0-.413-.248l-.744,1.322A.223.223,0,0,0,34.705,9.068Z" transform="translate(-30.532 -6.878)" fill="#bb3d1f"/>
  </g>
  <g id="Group_547" data-name="Group 547" transform="translate(40.207 101.984)">
    <path id="Path_1111" data-name="Path 1111" d="M10.264,24.68a.11.11,0,0,0-.124.124v.785a.124.124,0,1,0,.248,0V24.8A.132.132,0,0,0,10.264,24.68Z" transform="translate(-8.446 -24.68)" fill="#bb3d1f"/>
    <path id="Path_1112" data-name="Path 1112" d="M10.167,24.812a.12.12,0,0,0-.207.124l.413.7c.041.041.083.083.124.083h.083a.1.1,0,0,0,.041-.165Z" transform="translate(-9.093 -24.481)" fill="#bb3d1f"/>
    <path id="Path_1113" data-name="Path 1113" d="M9.836,25.151l.7.413h.083c.041,0,.083-.041.124-.083.041-.083,0-.124-.041-.165L10,24.9c-.083-.041-.124,0-.165.041A.136.136,0,0,0,9.836,25.151Z" transform="translate(-9.547 -24.035)" fill="#bb3d1f"/>
    <path id="Path_1114" data-name="Path 1114" d="M10.8,25.214a.11.11,0,0,0-.124-.124H9.854a.124.124,0,0,0,0,.248h.785C10.722,25.338,10.8,25.3,10.8,25.214Z" transform="translate(-9.73 -23.396)" fill="#bb3d1f"/>
    <path id="Path_1115" data-name="Path 1115" d="M10.72,25.254c-.041-.041-.124-.083-.165-.041l-.7.413a.1.1,0,0,0-.041.165c.041.041.083.083.124.083h.083l.7-.413A.184.184,0,0,0,10.72,25.254Z" transform="translate(-9.563 -23.064)" fill="#bb3d1f"/>
    <path id="Path_1116" data-name="Path 1116" d="M10.531,25.293c-.083-.041-.124,0-.165.041l-.413.7c-.041.083,0,.124.041.165h.083c.041,0,.083-.041.124-.083l.413-.7A.6.6,0,0,0,10.531,25.293Z" transform="translate(-9.085 -22.814)" fill="#bb3d1f"/>
    <path id="Path_1117" data-name="Path 1117" d="M10.264,25.3a.11.11,0,0,0-.124.124v.785a.124.124,0,1,0,.248,0v-.785A.132.132,0,0,0,10.264,25.3Z" transform="translate(-8.446 -22.738)" fill="#bb3d1f"/>
    <path id="Path_1118" data-name="Path 1118" d="M10.487,25.334c-.041-.041-.124-.083-.165-.041a.1.1,0,0,0-.041.165l.413.7c.041.041.083.083.124.083H10.9a.1.1,0,0,0,.041-.165Z" transform="translate(-8.09 -22.814)" fill="#bb3d1f"/>
    <path id="Path_1119" data-name="Path 1119" d="M11.211,25.626l-.7-.413c-.083-.041-.124,0-.165.041-.041.083,0,.124.041.165l.7.413h.083c.041,0,.083-.041.124-.083A.6.6,0,0,0,11.211,25.626Z" transform="translate(-7.864 -23.064)" fill="#bb3d1f"/>
    <path id="Path_1120" data-name="Path 1120" d="M11.269,25.09h-.785a.124.124,0,0,0,0,.248h.785a.11.11,0,0,0,.124-.124A.132.132,0,0,0,11.269,25.09Z" transform="translate(-7.757 -23.396)" fill="#bb3d1f"/>
    <path id="Path_1121" data-name="Path 1121" d="M10.342,25.458c.041.041.083.083.124.083h.083l.7-.413a.12.12,0,1,0-.124-.207l-.7.413C10.342,25.334,10.3,25.416,10.342,25.458Z" transform="translate(-7.863 -24.011)" fill="#bb3d1f"/>
    <path id="Path_1122" data-name="Path 1122" d="M10.3,25.693h.083c.041,0,.083-.041.124-.083l.413-.7c.041-.083,0-.124-.041-.165-.083-.041-.124,0-.165.041l-.413.7C10.214,25.611,10.255,25.693,10.3,25.693Z" transform="translate(-8.106 -24.536)" fill="#bb3d1f"/>
  </g>
  <g id="Group_548" data-name="Group 548" transform="translate(32.612)">
    <path id="Path_1123" data-name="Path 1123" d="M18.875.826a6.031,6.031,0,0,1,2.479,2.149,5.582,5.582,0,0,1,.826,2.893,5.834,5.834,0,0,1-.5,2.521,5.3,5.3,0,0,1-1.24,1.694c-.5.413-1.116.909-1.9,1.488A12.428,12.428,0,0,0,16.189,13.6a3.479,3.479,0,0,0-.826,2.438v1.694H13.421a1.481,1.481,0,0,1-1.488-1.488v-.413A6.06,6.06,0,0,1,12.47,13.1a6.264,6.264,0,0,1,1.322-1.818,19.987,19.987,0,0,1,1.983-1.529,11.238,11.238,0,0,0,2.107-1.694,2.773,2.773,0,0,0,.661-1.942,2.9,2.9,0,0,0-1.033-2.4,4.1,4.1,0,0,0-2.769-.826,6.26,6.26,0,0,0-4.38,1.777,1.494,1.494,0,0,1-1.9.083h0a1.49,1.49,0,0,1-.083-2.273A9.672,9.672,0,0,1,14.991,0,8.687,8.687,0,0,1,18.875.826ZM15.652,22.355a2.7,2.7,0,0,1,0,3.719,2.687,2.687,0,0,1-1.9.744,2.469,2.469,0,0,1-1.86-.785,2.523,2.523,0,0,1-.744-1.86,2.59,2.59,0,0,1,.744-1.86,2.523,2.523,0,0,1,1.86-.744A2.725,2.725,0,0,1,15.652,22.355Z" transform="translate(-7.892 0)" fill="#bb3d1f"/>
  </g>
  <ellipse id="Ellipse_17" data-name="Ellipse 17" cx="7.934" cy="2.479" rx="7.934" ry="2.479" transform="translate(106.281 96.529)" fill="#e57f6a"/>
  <g id="Group_549" data-name="Group 549" transform="translate(51.481 22.893)">
    <path id="Path_1124" data-name="Path 1124" d="M19.036,6.077a3.514,3.514,0,0,1,1.488,1.281,3.253,3.253,0,0,1,.5,1.736,3.3,3.3,0,0,1-.289,1.488,3.123,3.123,0,0,1-.744.992c-.289.248-.661.537-1.157.909a7.409,7.409,0,0,0-1.4,1.2,2.139,2.139,0,0,0-.455,1.488V16.2H15.812a.917.917,0,0,1-.909-.909v-.207a3.921,3.921,0,0,1,.331-1.653,3.151,3.151,0,0,1,.785-1.074,8.146,8.146,0,0,1,1.2-.909A5.991,5.991,0,0,0,18.5,10.416a2.06,2.06,0,0,0,.331-1.2,1.817,1.817,0,0,0-.62-1.446,2.543,2.543,0,0,0-1.653-.5,3.693,3.693,0,0,0-2.6,1.074.879.879,0,0,1-1.157.041h0a.939.939,0,0,1-.083-1.364,5.807,5.807,0,0,1,6.322-.95ZM17.052,18.97a1.57,1.57,0,0,1-1.116,2.686,1.6,1.6,0,0,1-1.116-.455,1.526,1.526,0,0,1-.455-1.116,1.6,1.6,0,0,1,.455-1.116,1.6,1.6,0,0,1,2.231,0Z" transform="translate(-12.458 -5.54)" fill="#e57f6a"/>
  </g>
  <g id="Group_550" data-name="Group 550" transform="translate(63.677 38.678)">
    <path id="Path_1125" data-name="Path 1125" d="M19.419,9.691a2.14,2.14,0,0,1,.909.785,2,2,0,0,1,.289,1.074,1.97,1.97,0,0,1-.207.909,2.407,2.407,0,0,1-.455.62,6.078,6.078,0,0,1-.7.537,4.041,4.041,0,0,0-.868.744,1.268,1.268,0,0,0-.289.909v.62h-.7a.547.547,0,0,1-.537-.537v-.165a2.552,2.552,0,0,1,.207-1.033,1.644,1.644,0,0,1,.5-.661,4.245,4.245,0,0,1,.744-.579,5.158,5.158,0,0,0,.785-.62.972.972,0,0,0,.248-.7,1.067,1.067,0,0,0-.372-.868,1.546,1.546,0,0,0-1.033-.331,2.183,2.183,0,0,0-1.612.661.562.562,0,0,1-.7.041h0a.554.554,0,0,1-.041-.826,3.507,3.507,0,0,1,2.438-.909A3.893,3.893,0,0,1,19.419,9.691Zm-1.2,7.934a.975.975,0,0,1,.289.661.906.906,0,0,1-.289.7.851.851,0,0,1-.7.289.771.771,0,0,1-.661-.289,1.078,1.078,0,0,1-.289-.7.822.822,0,0,1,.289-.661.975.975,0,0,1,.661-.289A1.5,1.5,0,0,1,18.221,17.624Z" transform="translate(-15.41 -9.36)" fill="#f4a89a"/>
  </g>
  <ellipse id="Ellipse_18" data-name="Ellipse 18" cx="44.876" cy="3.554" rx="44.876" ry="3.554" transform="translate(69.339 197.645)" fill="#f9afa5" opacity="0.28"/>
  <g id="Group_551" data-name="Group 551" transform="translate(96.563 95.289)">
    <path id="Path_1126" data-name="Path 1126" d="M24.574,33.6a1.122,1.122,0,0,1-.7-.248,1.246,1.246,0,0,1-.289-1.694,21.357,21.357,0,0,1,17.355-8.6,21.322,21.322,0,0,1,17.19,8.388,1.211,1.211,0,0,1-1.942,1.446,18.936,18.936,0,0,0-15.248-7.4A18.8,18.8,0,0,0,25.566,33.06,1.169,1.169,0,0,1,24.574,33.6Z" transform="translate(-23.368 -23.06)" fill="#bb3d1f"/>
  </g>
</svg>